<svg xmlns="http://www.w3.org/2000/svg" xmlns:xlink="http://www.w3.org/1999/xlink" width="250" zoomAndPan="magnify" viewBox="0 0 187.5 55.5" height="74" preserveAspectRatio="xMidYMid meet" version="1.0"><defs><g/><clipPath id="7c40f2cae7"><path d="M 0.402344 3 L 10 3 L 10 12 L 0.402344 12 Z M 0.402344 3 " clip-rule="nonzero"/></clipPath><clipPath id="f658c420aa"><rect x="0" width="58" y="0" height="15"/></clipPath><clipPath id="f0f3d9ce7a"><path d="M 0.0585938 0.316406 L 35.496094 0.316406 L 35.496094 18.628906 L 0.0585938 18.628906 Z M 0.0585938 0.316406 " clip-rule="nonzero"/></clipPath><clipPath id="9c1dac74ed"><rect x="0" width="36" y="0" height="19"/></clipPath></defs><g transform="matrix(1, 0, 0, 1, 43, 20)"><g clip-path="url(#f658c420aa)"><g clip-path="url(#7c40f2cae7)"><g fill="#ffffff" fill-opacity="1"><g transform="translate(0.694768, 11.368489)"><g><path d="M 5.984375 -1.375 L 3 -1.375 L 2.484375 0 L -0.21875 0 L 3.21875 -7.859375 L 5.828125 -7.859375 L 9.25 0 L 6.515625 0 Z M 5.265625 -3.28125 L 4.5 -5.25 L 3.734375 -3.28125 Z M 5.265625 -3.28125 "/></g></g></g></g><g fill="#ffffff" fill-opacity="1"><g transform="translate(9.731763, 11.368489)"><g><path d="M 0.640625 -7.859375 L 4.515625 -7.859375 C 5.390625 -7.859375 6.160156 -7.695312 6.828125 -7.375 C 7.492188 -7.0625 8.007812 -6.609375 8.375 -6.015625 C 8.75 -5.421875 8.9375 -4.722656 8.9375 -3.921875 C 8.9375 -3.117188 8.75 -2.421875 8.375 -1.828125 C 8.007812 -1.242188 7.492188 -0.789062 6.828125 -0.46875 C 6.160156 -0.15625 5.390625 0 4.515625 0 L 0.640625 0 Z M 4.390625 -2.0625 C 4.960938 -2.0625 5.414062 -2.222656 5.75 -2.546875 C 6.09375 -2.878906 6.265625 -3.335938 6.265625 -3.921875 C 6.265625 -4.515625 6.09375 -4.972656 5.75 -5.296875 C 5.414062 -5.617188 4.960938 -5.78125 4.390625 -5.78125 L 3.28125 -5.78125 L 3.28125 -2.0625 Z M 4.390625 -2.0625 "/></g></g></g><g fill="#ffffff" fill-opacity="1"><g transform="translate(18.993001, 11.368489)"><g><path d="M 9.03125 -7.859375 L 5.703125 0 L 3.109375 0 L -0.21875 -7.859375 L 2.640625 -7.859375 L 4.515625 -3.265625 L 6.421875 -7.859375 Z M 9.03125 -7.859375 "/></g></g></g><g fill="#ffffff" fill-opacity="1"><g transform="translate(27.805753, 11.368489)"><g><path d="M 0.640625 -7.859375 L 3.28125 -7.859375 L 3.28125 0 L 0.640625 0 Z M 0.640625 -7.859375 "/></g></g></g><g fill="#ffffff" fill-opacity="1"><g transform="translate(31.730007, 11.368489)"><g><path d="M 3.5625 0.171875 C 2.914062 0.171875 2.28125 0.0976562 1.65625 -0.046875 C 1.039062 -0.191406 0.535156 -0.382812 0.140625 -0.625 L 1 -2.5625 C 1.375 -2.34375 1.789062 -2.164062 2.25 -2.03125 C 2.71875 -1.90625 3.164062 -1.84375 3.59375 -1.84375 C 3.957031 -1.84375 4.21875 -1.875 4.375 -1.9375 C 4.53125 -2.007812 4.609375 -2.117188 4.609375 -2.265625 C 4.609375 -2.429688 4.503906 -2.554688 4.296875 -2.640625 C 4.097656 -2.722656 3.757812 -2.8125 3.28125 -2.90625 C 2.675781 -3.03125 2.171875 -3.164062 1.765625 -3.3125 C 1.367188 -3.457031 1.019531 -3.695312 0.71875 -4.03125 C 0.414062 -4.363281 0.265625 -4.816406 0.265625 -5.390625 C 0.265625 -5.878906 0.398438 -6.328125 0.671875 -6.734375 C 0.953125 -7.140625 1.367188 -7.457031 1.921875 -7.6875 C 2.472656 -7.914062 3.140625 -8.03125 3.921875 -8.03125 C 4.460938 -8.03125 4.992188 -7.972656 5.515625 -7.859375 C 6.035156 -7.742188 6.492188 -7.570312 6.890625 -7.34375 L 6.09375 -5.4375 C 5.320312 -5.820312 4.59375 -6.015625 3.90625 -6.015625 C 3.226562 -6.015625 2.890625 -5.847656 2.890625 -5.515625 C 2.890625 -5.359375 2.988281 -5.238281 3.1875 -5.15625 C 3.382812 -5.082031 3.71875 -5 4.1875 -4.90625 C 4.78125 -4.800781 5.28125 -4.675781 5.6875 -4.53125 C 6.101562 -4.382812 6.460938 -4.144531 6.765625 -3.8125 C 7.066406 -3.488281 7.21875 -3.039062 7.21875 -2.46875 C 7.21875 -1.976562 7.078125 -1.53125 6.796875 -1.125 C 6.523438 -0.726562 6.113281 -0.410156 5.5625 -0.171875 C 5.019531 0.0546875 4.351562 0.171875 3.5625 0.171875 Z M 3.5625 0.171875 "/></g></g></g><g fill="#ffffff" fill-opacity="1"><g transform="translate(39.096394, 11.368489)"><g><path d="M 4.75 0.171875 C 3.90625 0.171875 3.144531 0 2.46875 -0.34375 C 1.800781 -0.695312 1.273438 -1.1875 0.890625 -1.8125 C 0.515625 -2.4375 0.328125 -3.140625 0.328125 -3.921875 C 0.328125 -4.710938 0.515625 -5.421875 0.890625 -6.046875 C 1.273438 -6.671875 1.800781 -7.15625 2.46875 -7.5 C 3.144531 -7.851562 3.90625 -8.03125 4.75 -8.03125 C 5.601562 -8.03125 6.363281 -7.851562 7.03125 -7.5 C 7.707031 -7.15625 8.234375 -6.671875 8.609375 -6.046875 C 8.992188 -5.421875 9.1875 -4.710938 9.1875 -3.921875 C 9.1875 -3.140625 8.992188 -2.4375 8.609375 -1.8125 C 8.234375 -1.1875 7.707031 -0.695312 7.03125 -0.34375 C 6.363281 0 5.601562 0.171875 4.75 0.171875 Z M 4.75 -1.96875 C 5.082031 -1.96875 5.378906 -2.046875 5.640625 -2.203125 C 5.910156 -2.367188 6.125 -2.597656 6.28125 -2.890625 C 6.4375 -3.179688 6.515625 -3.523438 6.515625 -3.921875 C 6.515625 -4.316406 6.4375 -4.660156 6.28125 -4.953125 C 6.125 -5.253906 5.910156 -5.484375 5.640625 -5.640625 C 5.378906 -5.804688 5.082031 -5.890625 4.75 -5.890625 C 4.425781 -5.890625 4.128906 -5.804688 3.859375 -5.640625 C 3.597656 -5.484375 3.390625 -5.253906 3.234375 -4.953125 C 3.078125 -4.660156 3 -4.316406 3 -3.921875 C 3 -3.523438 3.078125 -3.179688 3.234375 -2.890625 C 3.390625 -2.597656 3.597656 -2.367188 3.859375 -2.203125 C 4.128906 -2.046875 4.425781 -1.96875 4.75 -1.96875 Z M 4.75 -1.96875 "/></g></g></g><g fill="#ffffff" fill-opacity="1"><g transform="translate(48.6043, 11.368489)"><g><path d="M 4 -1.96875 L 3.28125 -1.96875 L 3.28125 0 L 0.640625 0 L 0.640625 -7.859375 L 4.421875 -7.859375 C 5.148438 -7.859375 5.78125 -7.738281 6.3125 -7.5 C 6.851562 -7.257812 7.269531 -6.910156 7.5625 -6.453125 C 7.851562 -6.003906 8 -5.484375 8 -4.890625 C 8 -4.328125 7.867188 -3.835938 7.609375 -3.421875 C 7.359375 -3.003906 6.992188 -2.671875 6.515625 -2.421875 L 8.171875 0 L 5.34375 0 Z M 5.328125 -4.890625 C 5.328125 -5.179688 5.238281 -5.40625 5.0625 -5.5625 C 4.882812 -5.726562 4.613281 -5.8125 4.25 -5.8125 L 3.28125 -5.8125 L 3.28125 -3.96875 L 4.25 -3.96875 C 4.613281 -3.96875 4.882812 -4.046875 5.0625 -4.203125 C 5.238281 -4.367188 5.328125 -4.597656 5.328125 -4.890625 Z M 5.328125 -4.890625 "/></g></g></g></g></g><g transform="matrix(1, 0, 0, 1, 104, 18)"><g clip-path="url(#9c1dac74ed)"><g clip-path="url(#f0f3d9ce7a)"><path fill="#a12026" d="M 4.804688 0.441406 L 30.90625 0.441406 C 33.40625 0.441406 35.433594 2.46875 35.433594 4.972656 L 35.433594 14.03125 C 35.433594 16.535156 33.40625 18.5625 30.90625 18.5625 L 4.804688 18.5625 C 2.300781 18.5625 0.273438 16.535156 0.273438 14.03125 L 0.273438 4.972656 C 0.273438 2.46875 2.300781 0.441406 4.804688 0.441406 Z M 4.804688 0.441406 " fill-opacity="1" fill-rule="nonzero"/></g><g fill="#ffffff" fill-opacity="1"><g transform="translate(4.758031, 13.368489)"><g><path d="M 4.421875 -7.859375 C 5.148438 -7.859375 5.78125 -7.738281 6.3125 -7.5 C 6.851562 -7.257812 7.269531 -6.910156 7.5625 -6.453125 C 7.851562 -6.003906 8 -5.484375 8 -4.890625 C 8 -4.296875 7.851562 -3.769531 7.5625 -3.3125 C 7.269531 -2.863281 6.851562 -2.519531 6.3125 -2.28125 C 5.78125 -2.039062 5.148438 -1.921875 4.421875 -1.921875 L 3.28125 -1.921875 L 3.28125 0 L 0.640625 0 L 0.640625 -7.859375 Z M 4.25 -3.96875 C 4.613281 -3.96875 4.882812 -4.046875 5.0625 -4.203125 C 5.238281 -4.367188 5.328125 -4.597656 5.328125 -4.890625 C 5.328125 -5.179688 5.238281 -5.40625 5.0625 -5.5625 C 4.882812 -5.726562 4.613281 -5.8125 4.25 -5.8125 L 3.28125 -5.8125 L 3.28125 -3.96875 Z M 4.25 -3.96875 "/></g></g></g><g fill="#ffffff" fill-opacity="1"><g transform="translate(13.088662, 13.368489)"><g><path d="M 4 -1.96875 L 3.28125 -1.96875 L 3.28125 0 L 0.640625 0 L 0.640625 -7.859375 L 4.421875 -7.859375 C 5.148438 -7.859375 5.78125 -7.738281 6.3125 -7.5 C 6.851562 -7.257812 7.269531 -6.910156 7.5625 -6.453125 C 7.851562 -6.003906 8 -5.484375 8 -4.890625 C 8 -4.328125 7.867188 -3.835938 7.609375 -3.421875 C 7.359375 -3.003906 6.992188 -2.671875 6.515625 -2.421875 L 8.171875 0 L 5.34375 0 Z M 5.328125 -4.890625 C 5.328125 -5.179688 5.238281 -5.40625 5.0625 -5.5625 C 4.882812 -5.726562 4.613281 -5.8125 4.25 -5.8125 L 3.28125 -5.8125 L 3.28125 -3.96875 L 4.25 -3.96875 C 4.613281 -3.96875 4.882812 -4.046875 5.0625 -4.203125 C 5.238281 -4.367188 5.328125 -4.597656 5.328125 -4.890625 Z M 5.328125 -4.890625 "/></g></g></g><g fill="#ffffff" fill-opacity="1"><g transform="translate(21.441716, 13.368489)"><g><path d="M 4.75 0.171875 C 3.90625 0.171875 3.144531 0 2.46875 -0.34375 C 1.800781 -0.695312 1.273438 -1.1875 0.890625 -1.8125 C 0.515625 -2.4375 0.328125 -3.140625 0.328125 -3.921875 C 0.328125 -4.710938 0.515625 -5.421875 0.890625 -6.046875 C 1.273438 -6.671875 1.800781 -7.15625 2.46875 -7.5 C 3.144531 -7.851562 3.90625 -8.03125 4.75 -8.03125 C 5.601562 -8.03125 6.363281 -7.851562 7.03125 -7.5 C 7.707031 -7.15625 8.234375 -6.671875 8.609375 -6.046875 C 8.992188 -5.421875 9.1875 -4.710938 9.1875 -3.921875 C 9.1875 -3.140625 8.992188 -2.4375 8.609375 -1.8125 C 8.234375 -1.1875 7.707031 -0.695312 7.03125 -0.34375 C 6.363281 0 5.601562 0.171875 4.75 0.171875 Z M 4.75 -1.96875 C 5.082031 -1.96875 5.378906 -2.046875 5.640625 -2.203125 C 5.910156 -2.367188 6.125 -2.597656 6.28125 -2.890625 C 6.4375 -3.179688 6.515625 -3.523438 6.515625 -3.921875 C 6.515625 -4.316406 6.4375 -4.660156 6.28125 -4.953125 C 6.125 -5.253906 5.910156 -5.484375 5.640625 -5.640625 C 5.378906 -5.804688 5.082031 -5.890625 4.75 -5.890625 C 4.425781 -5.890625 4.128906 -5.804688 3.859375 -5.640625 C 3.597656 -5.484375 3.390625 -5.253906 3.234375 -4.953125 C 3.078125 -4.660156 3 -4.316406 3 -3.921875 C 3 -3.523438 3.078125 -3.179688 3.234375 -2.890625 C 3.390625 -2.597656 3.597656 -2.367188 3.859375 -2.203125 C 4.128906 -2.046875 4.425781 -1.96875 4.75 -1.96875 Z M 4.75 -1.96875 "/></g></g></g></g></g></svg>